<?xml version="1.0" encoding="UTF-8"?>
<svg width="77px" height="77px" viewBox="0 0 77 77" version="1.1" xmlns="http://www.w3.org/2000/svg" xmlns:xlink="http://www.w3.org/1999/xlink">
    <!-- Generator: sketchtool 50 (54983) - http://www.bohemiancoding.com/sketch -->
    <title>6C87C1FE-65B9-493B-B563-366297473A81</title>
    <desc>Created with sketchtool.</desc>
    <defs></defs>
    <g id="Site-e-Área-do-Associado" stroke="none" stroke-width="1" fill="none" fill-rule="evenodd">
        <g id="PROTEÇÕES" transform="translate(-990.000000, -1284.000000)" fill-rule="nonzero">
            <g id="ICONS-Copy" transform="translate(133.000000, 1283.000000)">
                <g id="3" transform="translate(773.000000, 1.000000)">
                    <g id="24-hours" transform="translate(84.000000, 0.000000)">
                        <path d="M66.7926875,34.524875 L45.3145,9.5046875 C45.555125,8.7828125 45.71875,8.0224375 45.71875,7.21875 C45.71875,3.2388125 42.4799375,0 38.5,0 C34.5200625,0 31.28125,3.2388125 31.28125,7.21875 C31.28125,8.0224375 31.444875,8.7828125 31.6855,9.5046875 L10.2025,34.5296875 C9.3410625,35.5355 9.4565625,37.05625 10.462375,37.9176875 C10.9195625,38.3075 11.473,38.5 12.03125,38.5 C12.7098125,38.5 13.37875,38.2160625 13.8551875,37.662625 L34.727,13.349875 C35.8290625,14.023625 37.114,14.4375 38.5,14.4375 C39.886,14.4375 41.1709375,14.023625 42.2681875,13.3450625 L63.1448125,37.6578125 C63.62125,38.2160625 64.2901875,38.5 64.96875,38.5 C65.5221875,38.5 66.0804375,38.3075 66.5328125,37.9176875 C67.5434375,37.05625 67.66375,35.5355 66.7926875,34.524875 Z M36.09375,7.21875 C36.09375,5.8905 37.17175,4.8125 38.5,4.8125 C39.82825,4.8125 40.90625,5.8905 40.90625,7.21875 C40.90625,8.547 39.82825,9.625 38.5,9.625 C37.17175,9.625 36.09375,8.547 36.09375,7.21875 Z" id="Shape" fill="#455A64"></path>
                        <path d="M74.59375,33.6875 L2.40625,33.6875 C1.078,33.6875 0,34.7655 0,36.09375 L0,74.59375 C0,75.922 1.078,77 2.40625,77 L74.59375,77 C75.922,77 77,75.922 77,74.59375 L77,36.09375 C77,34.7655 75.922,33.6875 74.59375,33.6875 Z" id="Shape" fill="#009688"></path>
                        <g id="Group" transform="translate(9.625000, 43.312500)" fill="#FAFAFA">
                            <path d="M7.21875,14.4375 C11.1986875,14.4375 14.4375,11.1986875 14.4375,7.21875 C14.4375,3.2388125 11.1986875,0 7.21875,0 L2.40625,0 C1.078,0 0,1.078 0,2.40625 C0,3.7345 1.078,4.8125 2.40625,4.8125 L7.21875,4.8125 C8.547,4.8125 9.625,5.8953125 9.625,7.21875 C9.625,8.5421875 8.547,9.625 7.21875,9.625 C3.2388125,9.625 0,12.8638125 0,16.84375 L0,21.65625 C0,22.9845 1.078,24.0625 2.40625,24.0625 L12.03125,24.0625 C13.3595,24.0625 14.4375,22.9845 14.4375,21.65625 C14.4375,20.328 13.3595,19.25 12.03125,19.25 L4.8125,19.25 L4.8125,16.84375 C4.8125,15.5203125 5.8905,14.4375 7.21875,14.4375 Z" id="Shape"></path>
                            <path d="M31.28125,0 C29.953,0 28.875,1.078 28.875,2.40625 L28.875,9.625 L24.0625,9.625 L24.0625,2.40625 C24.0625,1.078 22.9845,0 21.65625,0 C20.328,0 19.25,1.078 19.25,2.40625 L19.25,12.03125 C19.25,13.3595 20.328,14.4375 21.65625,14.4375 L28.875,14.4375 L28.875,21.65625 C28.875,22.9845 29.953,24.0625 31.28125,24.0625 C32.6095,24.0625 33.6875,22.9845 33.6875,21.65625 L33.6875,2.40625 C33.6875,1.078 32.6095,0 31.28125,0 Z" id="Shape"></path>
                            <path d="M55.34375,0 C54.0155,0 52.9375,1.078 52.9375,2.40625 L52.9375,9.625 L48.125,9.625 L48.125,2.40625 C48.125,1.078 47.047,0 45.71875,0 C44.3905,0 43.3125,1.078 43.3125,2.40625 L43.3125,21.65625 C43.3125,22.9845 44.3905,24.0625 45.71875,24.0625 C47.047,24.0625 48.125,22.9845 48.125,21.65625 L48.125,14.4375 L52.9375,14.4375 L52.9375,21.65625 C52.9375,22.9845 54.0155,24.0625 55.34375,24.0625 C56.672,24.0625 57.75,22.9845 57.75,21.65625 L57.75,2.40625 C57.75,1.078 56.672,0 55.34375,0 Z" id="Shape"></path>
                        </g>
                    </g>
                </g>
            </g>
        </g>
    </g>
</svg>