<?xml version="1.0" encoding="UTF-8"?>
<svg width="90px" height="77px" viewBox="0 0 90 77" version="1.1" xmlns="http://www.w3.org/2000/svg" xmlns:xlink="http://www.w3.org/1999/xlink">
    <!-- Generator: sketchtool 50 (54983) - http://www.bohemiancoding.com/sketch -->
    <title>21A82B3C-1F1D-4C44-93FC-77FE7C92D246</title>
    <desc>Created with sketchtool.</desc>
    <defs></defs>
    <g id="Site-e-Área-do-Associado" stroke="none" stroke-width="1" fill="none" fill-rule="evenodd">
        <g id="PROTEÇÕES" transform="translate(-984.000000, -719.000000)" fill-rule="nonzero">
            <g id="ICONS" transform="translate(127.000000, 719.000000)">
                <g id="3" transform="translate(770.000000, 0.000000)">
                    <g id="battery" transform="translate(87.000000, 0.000000)">
                        <polygon id="Shape" fill="#34485C" points="3.0756448 70.7945317 86.1189253 70.7945317 86.1189253 15.4324027 3.0756448 15.4324027"></polygon>
                        <polygon id="Shape" fill="#4897F7" points="12.3027534 9.28111312 21.5296878 9.28111312 21.5296878 0.0540045249 12.3027534 0.0540045249"></polygon>
                        <polygon id="Shape" fill="#576D7E" points="10.7648439 35.4243552 29.2188869 35.4243552 29.2188869 29.2728914 10.7648439 29.2728914"></polygon>
                        <polygon id="Shape" fill="#397ABC" points="26.1439389 15.4324027 7.68989593 15.4324027 10.7657149 9.28111312 23.0682941 9.28111312"></polygon>
                        <polygon id="Shape" fill="#C6421E" points="67.6648824 9.28111312 76.8918167 9.28111312 76.8918167 0.0540045249 67.6648824 0.0540045249"></polygon>
                        <polygon id="Shape" fill="#992C13" points="81.5060679 15.4324027 63.0520249 15.4324027 66.1278439 9.28111312 78.4304231 9.28111312"></polygon>
                        <g id="Group" fill="#576D7E">
                            <polygon id="Shape" points="78.4304231 29.2728914 72.2791335 29.2728914 72.2791335 23.1216018 66.1278439 23.1216018 66.1278439 29.2728914 59.9763801 29.2728914 59.9763801 35.4243552 66.1278439 35.4243552 66.1278439 41.5756448 72.2791335 41.5756448 72.2791335 35.4243552 78.4304231 35.4243552"></polygon>
                            <polygon id="Shape" points="0 76.9459955 89.1945701 76.9459955 89.1945701 70.7945317 0 70.7945317"></polygon>
                            <path d="M30.7574932,1.59191403 L30.7574932,15.4324027 L36.9087828,15.4324027 L36.9087828,7.74790724 C36.9087828,6.89602941 37.5993439,6.20546833 38.4512217,6.20546833 L50.7447421,6.20546833 C51.5966199,6.20546833 52.287181,6.89602941 52.287181,7.74790724 L52.287181,15.4324027 L58.4384706,15.4324027 L58.4384706,1.59191403 C58.4384706,0.742997738 57.7494774,0.0540045249 56.9005611,0.0540045249 L32.2954027,0.0540045249 C31.4464864,0.0540045249 30.7574932,0.742997738 30.7574932,1.59191403" id="Shape"></path>
                        </g>
                    </g>
                </g>
            </g>
        </g>
    </g>
</svg>