<?xml version="1.0" encoding="UTF-8"?>
<svg width="100px" height="77px" viewBox="0 0 100 77" version="1.1" xmlns="http://www.w3.org/2000/svg" xmlns:xlink="http://www.w3.org/1999/xlink">
    <!-- Generator: sketchtool 50 (54983) - http://www.bohemiancoding.com/sketch -->
    <title>9E8C86B4-C2AD-4BAF-85A8-A28C277D62C6</title>
    <desc>Created with sketchtool.</desc>
    <defs></defs>
    <g id="Site-e-Área-do-Associado" stroke="none" stroke-width="1" fill="none" fill-rule="evenodd">
        <g id="PROTEÇÕES" transform="translate(-215.000000, -719.000000)" fill-rule="nonzero">
            <g id="ICONS" transform="translate(127.000000, 719.000000)">
                <g id="1">
                    <g id="car-breakdown" transform="translate(88.000000, 0.000000)">
                        <path d="M88.5326944,46.9124444 L81.9589167,40.6330556 C78.3595556,37.1950833 73.5736944,35.2765 68.5963056,35.2765 L56.4748333,35.2765 C48.9867778,35.2765 41.6346389,37.2734444 35.1755833,41.0616111 L22.0723611,48.7466389 L13.7865,32.2418056 C13.3966389,31.4655833 12.4516389,31.1519444 11.6756111,31.542 C10.8993889,31.9316667 10.5861389,32.8768611 10.9758056,33.6528889 L18.9917778,49.6202778 L14.7861389,49.8071389 C9.03661111,50.0626389 4.06661111,53.9011667 2.36619444,59.3994722 L0.139027778,66.6016944 C-0.47075,68.5735556 1.00313889,70.5720556 3.06697222,70.5720556 L99.5555556,70.5720556 L99.5555556,60.2933333 C99.5555556,53.6305 94.7864167,48.1265556 88.5326944,46.9124444 Z" id="Shape" fill="#249ED9"></path>
                        <g id="Group" transform="translate(9.722222, 51.333333)" fill="#464655">
                            <path d="M52.3218889,3.16322222 L46.4074722,3.16322222 C45.5390833,3.16322222 44.8348056,2.45913889 44.8348056,1.59075 C44.8348056,0.722361111 45.5388889,0.0180833333 46.4074722,0.0180833333 L52.3218889,0.0180833333 C53.1902778,0.0180833333 53.8945556,0.722166667 53.8945556,1.59075 C53.8945556,2.45933333 53.1904722,3.16322222 52.3218889,3.16322222 Z" id="Shape"></path>
                            <circle id="Oval" cx="8.94522222" cy="16.7226111" r="8.84197222"></circle>
                        </g>
                        <circle id="Oval" fill="#AAB1C6" cx="18.6674444" cy="68.0559444" r="3.47394444"></circle>
                        <circle id="Oval" fill="#464655" cx="85.9378333" cy="68.0559444" r="8.84197222"></circle>
                        <circle id="Oval" fill="#AAB1C6" cx="85.9378333" cy="68.0559444" r="3.47394444"></circle>
                        <path d="M92.5269722,48.3703889 C92.1991389,49.1475833 92.0177222,50.0019722 92.0177222,50.8983611 L92.0177222,52.7051389 C92.0177222,56.2998333 94.9318611,59.2137778 98.5263611,59.2137778 C98.85925,59.2137778 99.1866944,59.1885 99.5061667,59.1400833 C99.1163056,54.4846944 96.3909722,50.5153056 92.5269722,48.3703889 Z" id="Shape" fill="#FF9140"></path>
                        <path d="M2.36638889,59.3994722 L2.14083333,60.1286389 C2.66330556,60.2639722 3.21125,60.3359167 3.77611111,60.3359167 C7.37080556,60.3359167 10.28475,57.4217778 10.28475,53.8272778 L10.28475,52.0205 C10.28475,51.6139167 10.2454722,51.2166667 10.1743056,50.8305 C6.49911111,52.3539722 3.58827778,55.4479722 2.36638889,59.3994722 Z" id="Shape" fill="#FFB64D"></path>
                        <g id="Group" transform="translate(3.111111, 0.777778)" fill="#707487">
                            <path d="M14.7834167,9.24583333 C15.2755556,8.35469444 15.5563333,7.33055556 15.5563333,6.2405 C15.5563333,2.80116667 12.7681944,0.0130277778 9.32886111,0.0130277778 C5.88952778,0.0130277778 3.10158333,2.80116667 3.10158333,6.2405 C3.10158333,9.67983333 5.88972222,12.4679722 9.32905556,12.4679722 C9.40722222,12.4679722 9.48480556,12.4648611 9.56219444,12.4621389 C9.27947222,13.1143056 9.12177778,13.8331667 9.12177778,14.5891667 C9.12177778,17.5453056 11.5181111,19.9418333 14.4744444,19.9418333 C17.4307778,19.9418333 19.8271111,17.5455 19.8271111,14.5891667 C19.8271111,11.7366667 17.5958611,9.40605556 14.7834167,9.24583333 Z" id="Shape"></path>
                            <circle id="Oval" cx="3.10158333" cy="37.7222222" r="3.08427778"></circle>
                            <circle id="Oval" cx="5.49188889" cy="24.8626389" r="3.08427778"></circle>
                        </g>
                        <path d="M81.9589167,40.6330556 C78.3595556,37.1950833 73.5736944,35.2765 68.5963056,35.2765 L56.4748333,35.2765 C48.9867778,35.2765 41.6346389,37.2734444 35.1755833,41.0616111 L20.713,49.5438611 L88.5328889,46.9124444 L81.9589167,40.6330556 Z" id="Shape" fill="#99EEFF"></path>
                        <path d="M6.44816667,70.2516111 L8.98041667,62.0641389 C10.9135833,55.8135278 32.8875556,49.0713611 32.8875556,49.0713611 L46.2791389,41.2171667 C51.3681389,38.2324444 56.9451944,36.2269444 62.7233056,35.2761111 L56.4754167,35.2761111 C48.9873611,35.2761111 41.6352222,37.2730556 35.1761667,41.0612222 L20.7135833,49.5434722 L14.7869167,49.80675 C9.03738889,50.06225 4.06738889,53.9007778 2.36697222,59.3990833 L0.139416667,66.6013056 C-0.470361111,68.5731667 1.00352778,70.5716667 3.06736111,70.5716667 L6.36727778,70.5716667 C6.38925,70.4651111 6.41511111,70.3583611 6.44816667,70.2516111 Z" id="Shape" fill="#000000" opacity="0.1"></path>
                        <path d="M12.9704167,68.05575 C12.9704167,63.7095278 16.1071944,60.0983056 20.2397222,59.3561111 C19.7291111,59.2643333 19.2041111,59.2139722 18.6670556,59.2139722 C13.7837778,59.2139722 9.82527778,63.1726667 9.82527778,68.05575 C9.82527778,72.9388333 13.7839722,76.8975278 18.6670556,76.8975278 C19.2041111,76.8975278 19.7291111,76.8469722 20.2397222,76.7553889 C16.1071944,76.0131944 12.9704167,72.4019722 12.9704167,68.05575 Z" id="Shape" fill="#000000" opacity="0.1"></path>
                        <path d="M80.241,68.05575 C80.241,63.7095278 83.3777778,60.0983056 87.5103056,59.3561111 C86.9996944,59.2643333 86.4746944,59.2139722 85.9376389,59.2139722 C81.0543611,59.2139722 77.0958611,63.1726667 77.0958611,68.05575 C77.0958611,72.9388333 81.0545556,76.8975278 85.9376389,76.8975278 C86.4746944,76.8975278 86.9996944,76.8469722 87.5103056,76.7553889 C83.3775833,76.0131944 80.241,72.4019722 80.241,68.05575 Z" id="Shape" fill="#000000" opacity="0.1"></path>
                    </g>
                </g>
            </g>
        </g>
    </g>
</svg>