<?xml version="1.0" encoding="UTF-8"?>
<svg width="100px" height="76px" viewBox="0 0 100 76" version="1.1" xmlns="http://www.w3.org/2000/svg" xmlns:xlink="http://www.w3.org/1999/xlink">
    <!-- Generator: sketchtool 50 (54983) - http://www.bohemiancoding.com/sketch -->
    <title>51247B5B-0BB5-4A8A-A699-6FD1D2BC0EEE</title>
    <desc>Created with sketchtool.</desc>
    <defs></defs>
    <g id="Site-e-Área-do-Associado" stroke="none" stroke-width="1" fill="none" fill-rule="evenodd">
        <g id="PROTEÇÕES" transform="translate(-603.000000, -719.000000)" fill-rule="nonzero">
            <g id="ICONS" transform="translate(127.000000, 719.000000)">
                <g id="2" transform="translate(399.000000, 0.000000)">
                    <g id="crane-(1)-copy" transform="translate(77.000000, 0.000000)">
                        <path d="M54.2810916,49.1988304 C54.0639376,49.1988304 53.8432749,49.1602339 53.6315789,49.0744639 L28.0167641,38.8278752 L2.40175439,49.0744639 C1.51052632,49.4333333 0.484405458,48.9974659 0.125536062,48.0974659 C-0.233333333,47.1992203 0.204288499,46.180117 1.10253411,45.8212476 L28.0165692,35.0563353 L54.9306043,45.8212476 C55.8288499,46.180117 56.2666667,47.1992203 55.9076023,48.0974659 C55.6327485,48.7838207 54.9744639,49.1988304 54.2810916,49.1988304" id="Shape" fill="#7C7B7A"></path>
                        <g id="Group" transform="translate(5.068226, 54.385965)" fill="#494949">
                            <path d="M85.9830409,10.57154 C85.9830409,16.374269 81.279922,21.0773879 75.477193,21.0773879 C69.6744639,21.0773879 64.97154,16.374269 64.97154,10.57154 C64.97154,4.76881092 69.6746589,0.0656920078 75.4773879,0.0656920078 C81.280117,0.0656920078 85.9830409,4.76881092 85.9830409,10.57154" id="Shape"></path>
                            <path d="M21.1974659,10.57154 C21.1974659,16.374269 16.494347,21.0773879 10.6916179,21.0773879 C4.88888889,21.0773879 0.185769981,16.374269 0.185769981,10.57154 C0.185769981,4.76881092 4.88888889,0.0656920078 10.6916179,0.0656920078 C16.494347,0.0656920078 21.1974659,4.76881092 21.1974659,10.57154" id="Shape"></path>
                        </g>
                        <path d="M98.7362573,34.0138402 L83.5202729,17.2764133 C82.7411306,16.4202729 81.6362573,15.9298246 80.4769981,15.9298246 L64.3489279,15.9298246 C62.6575049,15.9298246 61.2847953,17.3025341 61.2847953,18.9939571 L61.2847953,47.4471735 L0.000974658869,47.4471735 L0.000974658869,62.4756335 C0.000974658869,63.8465887 1.11111111,64.9567251 2.48206628,64.9567251 L5.25380117,64.9567251 C5.25380117,59.1557505 9.95692008,54.4508772 15.7596491,54.4508772 C21.5623782,54.4508772 26.2654971,59.1557505 26.2654971,64.9567251 L61.2847953,64.9567251 L70.0395712,64.9567251 C70.0395712,59.1557505 74.7426901,54.4508772 80.5454191,54.4508772 C86.3481481,54.4508772 91.0512671,59.1557505 91.0512671,64.9567251 L97.3249513,64.9567251 C98.6959064,64.9567251 99.8060429,63.8465887 99.8060429,62.4756335 L99.8060429,36.7820663 C99.8060429,35.7578947 99.4243665,34.7721248 98.7362573,34.0138402" id="Shape" fill="#378CD5"></path>
                        <g id="Group" transform="translate(12.085770, 15.789474)" fill="#E0E0E0">
                            <path d="M7.17602339,49.1680312 C7.17602339,51.102924 5.60896686,52.6699805 3.67407407,52.6699805 C1.73918129,52.6699805 0.172124756,51.102924 0.172124756,49.1680312 C0.172124756,47.2331384 1.73918129,45.6660819 3.67407407,45.6660819 C5.60896686,45.6660819 7.17602339,47.2331384 7.17602339,49.1680312" id="Shape"></path>
                            <path d="M71.9617934,49.1680312 C71.9617934,51.102924 70.3947368,52.6699805 68.4598441,52.6699805 C66.5249513,52.6699805 64.9578947,51.102924 64.9578947,49.1680312 C64.9578947,47.2331384 66.5249513,45.6660819 68.4598441,45.6660819 C70.3945419,45.6660819 71.9617934,47.2331384 71.9617934,49.1680312" id="Shape"></path>
                            <path d="M71.4350877,1.4877193 C70.6559454,0.629824561 69.5493177,0.141130604 68.3902534,0.141130604 L59.2134503,0.141130604 C58.5183236,0.141130604 57.9545809,0.704873294 57.9545809,1.4 L57.9545809,19.8937622 C57.9545809,20.5888889 58.5183236,21.1526316 59.2134503,21.1526316 L87.7208577,21.1526316 L87.7208577,20.9916179 C87.7208577,19.9690058 87.3391813,18.9814815 86.6510721,18.2251462 L71.4350877,1.4877193 Z" id="Shape"></path>
                        </g>
                        <path d="M47.277193,12.42846 L8.75594542,12.42846 L16.3042885,1.86140351 C17.0606238,0.800389864 18.2846004,0.171734893 19.5873294,0.171734893 L36.445614,0.171734893 C37.7483431,0.171734893 38.9723197,0.800389864 39.728655,1.86140351 L47.277193,12.42846 Z" id="Shape" fill="#8E382F"></path>
                        <g id="Group" transform="translate(8.576998, 19.298246)" fill="#E0E0E0">
                            <path d="M10.6847953,5.38693957 C10.6847953,8.28830409 8.33333333,10.6397661 5.43196881,10.6397661 C2.53060429,10.6397661 0.1791423,8.28830409 0.1791423,5.38693957 C0.1791423,2.48557505 2.53060429,0.13411306 5.43196881,0.13411306 C8.33333333,0.13411306 10.6847953,2.48557505 10.6847953,5.38693957" id="Shape"></path>
                            <path d="M38.7001949,5.38693957 C38.7001949,8.28830409 36.3487329,10.6397661 33.4473684,10.6397661 C30.5460039,10.6397661 28.1945419,8.28830409 28.1945419,5.38693957 C28.1945419,2.48557505 30.5460039,0.13411306 33.4473684,0.13411306 C36.3487329,0.13411306 38.7001949,2.48557505 38.7001949,5.38693957" id="Shape"></path>
                        </g>
                        <path d="M51.5473684,12.42846 L4.48499025,12.42846 C2.97563353,12.42846 1.75165692,13.6524366 1.75165692,15.1617934 L1.75165692,21.9520468 C1.75165692,23.4614035 2.97563353,24.6853801 4.48499025,24.6853801 L8.75555556,24.6853801 C8.75555556,21.7840156 11.1070175,19.4325536 14.0083821,19.4325536 C16.9097466,19.4325536 19.2612086,21.7840156 19.2612086,24.6853801 L36.7709552,24.6853801 C36.7709552,21.7840156 39.1224172,19.4325536 42.0237817,19.4325536 C44.9251462,19.4325536 47.2766082,21.7840156 47.2766082,24.6853801 L51.5471735,24.6853801 C53.0565302,24.6853801 54.2805068,23.4614035 54.2805068,21.9520468 L54.2805068,15.1617934 C54.2807018,13.6524366 53.0567251,12.42846 51.5473684,12.42846" id="Shape" fill="#E85A4B"></path>
                        <path d="M52.0218324,36.9421053 L4.01208577,36.9421053 C2.76374269,36.9421053 1.75165692,35.9300195 1.75165692,34.6834308 L1.75165692,32.1968811 C1.75165692,30.9500975 2.76374269,29.9382066 4.01208577,29.9382066 L52.0218324,29.9382066 C53.2703704,29.9382066 54.2805068,30.9502924 54.2805068,32.1968811 L54.2805068,34.6832359 C54.2805068,35.9300195 53.2701754,36.9421053 52.0218324,36.9421053" id="Shape" fill="#383838"></path>
                        <polygon id="Shape" fill="#E85A4B" points="26.265692 12.42846 29.7676413 12.42846 29.7676413 0.171734893 26.265692 0.171734893"></polygon>
                        <path d="M99.8062378,43.945809 L89.3003899,43.945809 C88.3321637,43.945809 87.5495127,44.72846 87.5495127,45.6966862 C87.5495127,46.6649123 88.3321637,47.4475634 89.3003899,47.4475634 L99.8062378,47.4475634 L99.8062378,43.945809 Z" id="Shape" fill="#83BEEB"></path>
                    </g>
                </g>
            </g>
        </g>
    </g>
</svg>