<?xml version="1.0" encoding="UTF-8"?>
<svg width="76px" height="77px" viewBox="0 0 76 77" version="1.1" xmlns="http://www.w3.org/2000/svg" xmlns:xlink="http://www.w3.org/1999/xlink">
    <!-- Generator: sketchtool 50 (54983) - http://www.bohemiancoding.com/sketch -->
    <title>7B1FA8CF-F3F3-4782-A4E4-8D90699D390D</title>
    <desc>Created with sketchtool.</desc>
    <defs></defs>
    <g id="Site-e-Área-do-Associado" stroke="none" stroke-width="1" fill="none" fill-rule="evenodd">
        <g id="PROTEÇÕES" transform="translate(-225.000000, -1283.000000)" fill-rule="nonzero">
            <g id="ICONS-Copy" transform="translate(133.000000, 1283.000000)">
                <g id="1">
                    <g id="BENEFICIO-1">
                        <g id="discount-(1)-copy" transform="translate(92.000000, 0.000000)">
                            <path d="M55.7185234,65.5224883 C55.7185234,65.5224883 62.3545098,57.481252 65.7536387,53.8341289 C67.5685527,51.8867207 68.4170566,49.2739844 66.8677324,47.1092617 C65.3184082,44.9445391 61.9708633,44.0600918 60.1428652,45.995168 C56.6598184,49.6821445 48.4884941,59.4972383 48.4884941,59.4972383 L55.7185234,65.5224883 Z" id="Shape" fill="#FFB171"></path>
                            <path d="M75.1523008,46.6573379 C73.6029766,44.4926152 70.2554316,43.608168 68.4274336,45.5432441 C64.9443867,49.2302207 56.7730625,59.0453145 56.7730625,59.0453145 L33.8778945,61.4553242 L33.8778945,51.8152852 C33.8778945,51.8152852 29.057875,46.9952656 20.6227656,46.9952656 C9.19683789,46.9952656 2.24788867,52.3675195 0.547572266,53.8502207 C0.286042969,54.0780625 0.137607422,54.4089219 0.137607422,54.7557227 L0.137607422,66.2753438 C0.137607422,66.9408223 0.677208984,67.4804238 1.3426875,67.4804238 L17.0076758,67.4804238 L39.3921172,76.9054043 C39.716209,77.0418086 40.0839141,77.0299277 40.3985313,76.8726191 L64.0030918,65.0704141 C64.0030918,65.0704141 70.6390781,57.0291777 74.038207,53.3820547 C75.8532715,51.4347969 76.7017754,48.8220605 75.1523008,46.6573379 Z" id="Shape" fill="#FFCC99"></path>
                            <path d="M74.038207,48.6733242 C70.6392285,52.3204473 61.593082,62.6604043 61.593082,62.6604043 L39.9028437,72.411582 L17.0076758,62.771543 L0.137457031,62.771543 L0.137457031,66.2753437 C0.137457031,66.9408223 0.677058594,67.4804238 1.34253711,67.4804238 L17.0076758,67.4804238 L39.3921172,76.9054043 C39.716209,77.0418086 40.0839141,77.0299277 40.3985313,76.8726191 L64.0030918,65.0704141 C64.0030918,65.0704141 70.6390781,57.0291777 74.038207,53.3820547 C75.7875508,51.5051797 76.6380098,49.0100488 75.3099102,46.893752 C74.9841641,47.5232871 74.5495352,48.1248496 74.038207,48.6733242 Z" id="Shape" fill="#FFB171"></path>
                            <path d="M49.0760703,55.6479902 C49.0760703,55.6479902 29.057875,46.995416 20.6227656,46.995416 C9.19683789,46.995416 2.24788867,52.3676699 0.547572266,53.8503711 C0.286042969,54.0782129 0.137607422,54.4090723 0.137607422,54.755873 L0.137607422,61.4554746 L33.8778945,61.4554746 L46.2043613,64.8503926 C48.7455117,65.6434023 51.4484824,64.2262715 52.2414922,61.6849707 C53.034502,59.1438203 51.6172207,56.441 49.0760703,55.6479902 Z" id="Shape" fill="#FFCC99"></path>
                            <path d="M46.2043613,61.2354531 L37.5516367,58.8523633 C35.4920371,58.2850898 33.3483691,59.4288105 32.6728145,61.455625 L46.2043613,64.850543 C48.7455117,65.6435527 51.4484824,64.2262715 52.2414922,61.6851211 C52.5873906,60.5768926 52.5126465,59.4381348 52.1079453,58.4401426 C51.1785312,60.7459316 48.6190332,61.9889102 46.2043613,61.2354531 Z" id="Shape" fill="#FFB171"></path>
                            <path d="M65.133127,23.6821621 C64.9582227,23.2091836 64.5073516,22.895168 64.0029414,22.895168 L54.3629023,22.895168 L54.3629023,1.20508008 C54.3629023,0.539601563 53.8233008,0 53.1578223,0 L24.2377051,0 C23.5722266,0 23.032625,0.539601563 23.032625,1.20508008 L23.032625,22.8953184 L13.3925859,22.8953184 C12.9093809,22.8953184 12.461668,23.1951973 12.278041,23.6421582 C12.0826836,24.1178438 12.2177344,24.6806055 12.6081484,25.0152246 L37.9134766,46.7053125 C38.1390625,46.8987148 38.4184883,46.995416 38.6977637,46.995416 C38.9770391,46.995416 39.2563145,46.8987148 39.4819004,46.7053125 L64.7870781,25.0150742 C65.170123,24.6870723 65.3081816,24.1549902 65.133127,23.6821621 Z" id="Shape" fill="#AED45B"></path>
                            <path d="M26.6477148,30.1251973 L26.6459102,1.20508008 C26.6459102,0.539601563 27.1855117,0 27.8509902,0 L24.2377051,0 C23.5722266,0 23.032625,0.539601563 23.032625,1.20508008 L23.032625,22.8953184 L13.3925859,22.8953184 C12.9093809,22.8953184 12.461668,23.1951973 12.278041,23.6421582 C12.0826836,24.1178438 12.2177344,24.6806055 12.6081484,25.0152246 L37.9134766,46.7053125 C38.1390625,46.8987148 38.4184883,46.995416 38.6977637,46.995416 C38.9770391,46.995416 39.2563145,46.8987148 39.4819004,46.7053125 L42.5612988,44.065957 L26.6477148,30.1251973 Z" id="Shape" fill="#9AC932"></path>
                            <g id="Group" transform="translate(29.025391, 6.015625)" fill="#FFFFFF">
                                <path d="M2.44234375,16.8041973 C1.45457812,16.8041973 0.947460937,15.5715957 1.64361914,14.8757383 L16.1035273,0.415679687 C16.5449238,-0.0255664063 17.2600312,-0.0255664063 17.7012773,0.415679687 C18.1425234,0.856925781 18.1425234,1.57218359 17.7012773,2.0132793 L3.24121875,16.4733379 C3.0205957,16.6939609 2.73154492,16.8041973 2.44234375,16.8041973 Z" id="Shape"></path>
                                <path d="M15.6974727,16.8041973 C13.7457031,16.8041973 12.1577285,15.2162227 12.1577285,13.2644531 C12.1577285,11.3126836 13.7457031,9.72470898 15.6974727,9.72470898 C17.6492422,9.72470898 19.2372168,11.3126836 19.2372168,13.2644531 C19.2372168,15.216373 17.6492422,16.8041973 15.6974727,16.8041973 Z M15.6974727,11.9841777 C14.9915391,11.9841777 14.4171973,12.5585195 14.4171973,13.2644531 C14.4171973,13.9703867 14.9915391,14.5447285 15.6974727,14.5447285 C16.4034062,14.5447285 16.977748,13.9703867 16.977748,13.2644531 C16.977748,12.5585195 16.4034062,11.9841777 15.6974727,11.9841777 Z" id="Shape"></path>
                                <path d="M3.64742383,7.1641582 C1.6956543,7.1641582 0.107679687,5.57618359 0.107679687,3.62441406 C0.107679687,1.67264453 1.6956543,0.0846699219 3.64742383,0.0846699219 C5.59919336,0.0846699219 7.18716797,1.67264453 7.18716797,3.62441406 C7.18716797,5.57618359 5.59919336,7.1641582 3.64742383,7.1641582 Z M3.64742383,2.34413867 C2.94149023,2.34413867 2.36714844,2.91848047 2.36714844,3.62441406 C2.36714844,4.33034766 2.94149023,4.90468945 3.64742383,4.90468945 C4.35335742,4.90468945 4.92769922,4.33034766 4.92769922,3.62441406 C4.92769922,2.91848047 4.35335742,2.34413867 3.64742383,2.34413867 Z" id="Shape"></path>
                            </g>
                        </g>
                    </g>
                </g>
            </g>
        </g>
    </g>
</svg>