<?xml version="1.0" encoding="UTF-8"?>
<svg width="123px" height="77px" viewBox="0 0 123 77" version="1.1" xmlns="http://www.w3.org/2000/svg" xmlns:xlink="http://www.w3.org/1999/xlink">
    <!-- Generator: sketchtool 50 (54983) - http://www.bohemiancoding.com/sketch -->
    <title>77182239-0E77-4289-BB84-5AC2BFACF13E</title>
    <desc>Created with sketchtool.</desc>
    <defs></defs>
    <g id="Site-e-Área-do-Associado" stroke="none" stroke-width="1" fill="none" fill-rule="evenodd">
        <g id="PROTEÇÕES" transform="translate(-602.000000, -1284.000000)" fill-rule="nonzero">
            <g id="ICONS-Copy" transform="translate(133.000000, 1283.000000)">
                <g id="2" transform="translate(408.000000, 1.000000)">
                    <g id="laptop" transform="translate(61.000000, 0.000000)">
                        <path d="M5.08823482,0.0187044534 L101.424587,0.0187044534 C104.223085,0.0187044534 106.512822,2.3084413 106.512822,5.10693927 L106.512822,66.7580648 L0,66.7580648 L0,5.10693927 C0,2.3084413 2.28973684,0.0187044534 5.08823482,0.0187044534 Z" id="Shape" fill="#1E252B"></path>
                        <rect id="Rectangle-path" fill="#FFC843" x="6.784417" y="6.80312146" width="92.9442996" height="53.1705263"></rect>
                        <circle id="Oval" fill="#FFFFFF" cx="53.2565668" cy="3.35059109" r="1.27782591"></circle>
                        <path d="M4.72193927,76.8575344 C2.11422672,76.8575344 0,74.7436194 0,72.1355951 L0,66.7580648 L31.3352591,66.7580648 L31.3352591,76.8578462 L4.72193927,76.8578462 L4.72193927,76.8575344 Z" id="Shape" fill="#A4A9AD"></path>
                        <path d="M18.9956194,66.7580648 C17.2810445,66.7580648 15.8782105,68.1608988 15.8782105,69.8754737 L15.8782105,73.7404372 C15.8782105,75.4550121 17.2810445,76.8578462 18.9956194,76.8578462 L119.273623,76.8578462 C120.988198,76.8578462 122.391032,75.4550121 122.391032,73.7404372 L122.391032,69.8754737 C122.391032,68.1608988 120.988198,66.7580648 119.273623,66.7580648 L18.9956194,66.7580648 Z" id="Shape" fill="#C3C6C8"></path>
                        <path d="M78.2273239,66.7580648 C78.2273239,68.4798097 76.8316599,69.8754737 75.109915,69.8754737 L63.1599514,69.8754737 C61.4382065,69.8754737 60.0425425,68.4798097 60.0425425,66.7580648 L78.2273239,66.7580648 Z" id="Shape" fill="#333E48"></path>
                        <rect id="Rectangle-path" fill="#FFFFFF" x="32.4569028" y="16.4649069" width="34.1259636" height="34.1259636"></rect>
                        <path d="M76.6870121,38.431417 L70.8247247,32.5691296 L73.9761134,31.417247 C74.7551538,31.1323158 75.2536275,30.3688623 75.2006316,29.5411903 C75.1479474,28.7135182 74.5562632,28.0192713 73.7472955,27.8362794 L63.3229919,25.4757773 C63.3117692,25.4732834 63.3005466,25.4726599 63.2896356,25.4704777 C63.2665668,25.4658016 63.2438097,25.4633077 63.2207409,25.4595668 C63.1312713,25.4442915 63.0421134,25.4358745 62.9526437,25.434004 C62.9314453,25.4333806 62.910247,25.4315101 62.8887368,25.4318219 C62.7843036,25.4330688 62.6808057,25.4430445 62.5788664,25.4614372 C62.5551741,25.4658016 62.5321053,25.4720364 62.5081012,25.477336 C62.420502,25.4969757 62.3341498,25.521915 62.2502915,25.5537126 C62.2303401,25.5611943 62.2097652,25.5671174 62.1901255,25.5752227 C62.0937976,25.6154372 62.001834,25.665004 61.9129879,25.7211174 C61.8905425,25.7354575 61.8684089,25.7507328 61.8462753,25.7663198 C61.755247,25.8292915 61.667336,25.8978745 61.5872186,25.9779919 C61.5071012,26.0581093 61.4385182,26.1460202 61.3752348,26.2373603 C61.3599595,26.2591822 61.3446842,26.281004 61.3306559,26.3031377 C61.2742308,26.3919838 61.224664,26.4842591 61.1844494,26.580587 C61.1763441,26.6005385 61.1704211,26.6208016 61.163251,26.640753 C61.1314534,26.7249231 61.1062024,26.8106518 61.0868745,26.898251 C61.0815749,26.9219433 61.0753401,26.9453239 61.0709757,26.9696397 C61.052583,27.0712672 61.0426073,27.1741417 61.0413603,27.2782632 C61.0410486,27.3003968 61.042919,27.3228421 61.0435425,27.3449757 C61.0457247,27.4331984 61.0541417,27.5214211 61.0687935,27.6099555 C61.0728462,27.6336478 61.0753401,27.6570283 61.0803279,27.6807206 C61.0825101,27.6916316 61.0831336,27.7028543 61.0856275,27.7137652 L63.4464413,38.1380688 C63.6297449,38.9470364 64.3236802,39.5387206 65.1513522,39.5914049 C65.1915668,39.5942105 65.2314696,39.5954575 65.2713725,39.5954575 C66.0522834,39.5954575 66.7568178,39.1082065 67.0277206,38.3668866 L68.1796032,35.2151862 L74.0422024,41.0777854 C74.407251,41.442834 74.886085,41.6255142 75.3646073,41.6255142 C75.8431296,41.6255142 76.3219636,41.442834 76.6873239,41.0774737 C77.4177328,40.3464413 77.4177328,39.1621377 76.6870121,38.431417 Z" id="Shape" fill="#1E252B"></path>
                    </g>
                </g>
            </g>
        </g>
    </g>
</svg>