<?xml version="1.0" encoding="UTF-8"?>
<svg width="40px" height="40px" viewBox="0 0 40 40" version="1.1" xmlns="http://www.w3.org/2000/svg" xmlns:xlink="http://www.w3.org/1999/xlink">
    <!-- Generator: sketchtool 50 (54983) - http://www.bohemiancoding.com/sketch -->
    <title>3743602A-C24E-4252-A02E-192C0A3FFF72</title>
    <desc>Created with sketchtool.</desc>
    <defs></defs>
    <g id="Site-e-Ãrea-do-Associado" stroke="none" stroke-width="1" fill="none" fill-rule="evenodd">
        <g id="CONTATO" transform="translate(-729.000000, -472.000000)" fill-rule="nonzero">
            <g id="INFOS" transform="translate(719.000000, 210.000000)">
                <g id="linkedin" transform="translate(10.000000, 262.000000)">
                    <ellipse id="Oval" fill="#007AB9" cx="19.8576991" cy="20.0340351" rx="19.8576991" ry="19.6835088"></ellipse>
                    <path d="M31.7224779,21.6178947 L31.7224779,29.7329825 L26.9759292,29.7329825 L26.9759292,22.1617544 C26.9759292,20.2607018 26.2906195,18.9624561 24.5720354,18.9624561 C23.260531,18.9624561 22.4814159,19.8364912 22.1373451,20.682807 C22.0123894,20.9852632 21.980177,21.4052632 21.980177,21.8294737 L21.980177,29.7326316 L17.2332743,29.7326316 C17.2332743,29.7326316 17.2969912,16.9094737 17.2332743,15.5821053 L21.980531,15.5821053 L21.980531,17.5873684 C21.9709735,17.6031579 21.9575221,17.6185965 21.9490265,17.6336842 L21.980531,17.6336842 L21.980531,17.5873684 C22.6113274,16.6252632 23.7362832,15.2498246 26.2584071,15.2498246 C29.3812389,15.2498246 31.7224779,17.2722807 31.7224779,21.6178947 Z M12.2676106,8.76105263 C10.6438938,8.76105263 9.58159292,9.81754386 9.58159292,11.205614 C9.58159292,12.5642105 10.6130973,13.6512281 12.2053097,13.6512281 L12.2361062,13.6512281 C13.8916814,13.6512281 14.9210619,12.5642105 14.9210619,11.205614 C14.8895575,9.81754386 13.8916814,8.76105263 12.2676106,8.76105263 Z M9.86371681,29.7329825 L14.6088496,29.7329825 L14.6088496,15.5821053 L9.86371681,15.5821053 L9.86371681,29.7329825 Z" id="Shape" fill="#F1F2F2"></path>
                </g>
            </g>
        </g>
    </g>
</svg>