<?xml version="1.0" encoding="UTF-8"?>
<svg width="43px" height="30px" viewBox="0 0 43 30" version="1.1" xmlns="http://www.w3.org/2000/svg" xmlns:xlink="http://www.w3.org/1999/xlink">
    <!-- Generator: sketchtool 50 (54983) - http://www.bohemiancoding.com/sketch -->
    <title>E963353C-611C-4C67-9070-AB3213A49051</title>
    <desc>Created with sketchtool.</desc>
    <defs></defs>
    <g id="Site-e-Ãrea-do-Associado" stroke="none" stroke-width="1" fill="none" fill-rule="evenodd">
        <g id="CONTATO" transform="translate(-725.000000, -276.000000)" fill-rule="nonzero">
            <g id="INFOS" transform="translate(719.000000, 210.000000)">
                <g id="mail" transform="translate(6.000000, 66.000000)">
                    <g id="Group" transform="translate(0.000000, 0.247253)" fill="#FF9E24">
                        <path d="M18.3780495,14.7527473 L0.287967033,29.4269505 C0.110027473,29.247033 0,28.9990385 0,28.7270604 L0,0.778516484 C0,0.506538462 0.110027473,0.258543956 0.287967033,0.078543956 L18.3780495,14.7527473 Z" id="Shape"></path>
                        <path d="M42.1978022,0.778516484 L42.1978022,28.7270604 C42.1978022,28.9990385 42.0877747,29.247033 41.9098352,29.427033 L23.8197527,14.7527473 L41.9098352,0.078543956 C42.0877747,0.258461538 42.1978022,0.506456044 42.1978022,0.778516484 Z" id="Shape"></path>
                    </g>
                    <path d="M41.1978297,0.0257967033 L0.999972527,0.0257967033 C0.721978022,0.0257967033 0.470027473,0.140769231 0.288049451,0.325796703 L21.0989011,21.9996429 L41.9098352,0.325796703 C41.7278571,0.140769231 41.4758242,0.0257967033 41.1978297,0.0257967033 Z" id="Shape" fill="#FFE1D6"></path>
                    <path d="M27.8195604,15 L41.9098352,29.6742033 C41.7278571,29.8592308 41.4758242,29.9742033 41.1979121,29.9742033 L0.999972527,29.9742033 C0.721978022,29.9742033 0.470027473,29.8592308 0.288049451,29.6742033 L14.3782418,15 L21.0989011,21.9996429 L27.8195604,15 Z" id="Shape" fill="#FFB14D"></path>
                </g>
            </g>
        </g>
    </g>
</svg>