<?xml version="1.0" encoding="UTF-8"?>
<svg width="39px" height="36px" viewBox="0 0 39 36" version="1.1" xmlns="http://www.w3.org/2000/svg" xmlns:xlink="http://www.w3.org/1999/xlink">
    <!-- Generator: sketchtool 50 (54983) - http://www.bohemiancoding.com/sketch -->
    <title>9D92EB4C-68BE-4029-9602-59345561724D</title>
    <desc>Created with sketchtool.</desc>
    <defs></defs>
    <g id="Site-e-Ãrea-do-Associado" stroke="none" stroke-width="1" fill="none" fill-rule="evenodd">
        <g id="CONTATO" transform="translate(-727.000000, -336.000000)" fill-rule="nonzero">
            <g id="INFOS" transform="translate(719.000000, 210.000000)">
                <g id="map" transform="translate(8.000000, 126.000000)">
                    <polygon id="Shape" fill="#43B05C" points="13.1289802 15.4943848 1.64549885 4.01090345 0 4.37632674 0 35.7400017 1.53098497 35.400107 13.1289802 23.8013823"></polygon>
                    <polygon id="Shape" fill="#48A0DC" points="6.83582236 34.2206869 13.1289802 32.8224505 13.1289802 27.9275291"></polygon>
                    <polygon id="Shape" fill="#43B05C" points="13.1289802 1.45877558 5.02110554 3.26036342 13.1289802 11.3682381"></polygon>
                    <polygon id="Shape" fill="#43B05C" points="36.0674968 0.863595143 25.5285726 4.37632674 25.5285726 11.4017899"></polygon>
                    <polygon id="Shape" fill="#48A0DC" points="25.5285726 15.5279366 25.5285726 35.0106139 38.6575528 29.9048994 38.6575528 2.39895644"></polygon>
                    <polygon id="Shape" fill="#3D994F" points="19.3455523 17.5848102 25.5285726 11.4017899 25.5285726 4.37632674 13.1289802 1.45877558 13.1289802 11.3682381"></polygon>
                    <polygon id="Shape" fill="#3D994F" points="13.1289802 15.4943848 13.1289802 23.8013823 17.2828437 19.6482483"></polygon>
                    <polygon id="Shape" fill="#4393BF" points="13.1289802 27.9275291 13.1289802 32.8224505 25.5285726 35.0106139 25.5285726 15.5279366"></polygon>
                    <polygon id="Shape" fill="#EFCE4A" points="13.1289802 11.3682381 5.02110554 3.26036342 1.64549885 4.01090345 13.1289802 15.4943848"></polygon>
                    <polygon id="Shape" fill="#EFCE4A" points="13.1289802 23.8013823 1.53098497 35.400107 6.83582236 34.2206869 13.1289802 27.9275291"></polygon>
                    <polygon id="Shape" fill="#EFCE4A" points="25.5285726 15.5279366 38.6575528 2.39895644 38.6575528 0 36.0674968 0.863595143 25.5285726 11.4017899"></polygon>
                    <polygon id="Shape" fill="#D6B445" points="19.3455523 17.5848102 13.1289802 11.3682381 13.1289802 15.4943848 17.2828437 19.6482483 13.1289802 23.8013823 13.1289802 27.9275291 25.5285726 15.5279366 25.5285726 11.4017899"></polygon>
                </g>
            </g>
        </g>
    </g>
</svg>