<?xml version="1.0" encoding="UTF-8"?>
<svg width="50px" height="36px" viewBox="0 0 50 36" version="1.1" xmlns="http://www.w3.org/2000/svg" xmlns:xlink="http://www.w3.org/1999/xlink">
    <!-- Generator: sketchtool 50 (54983) - http://www.bohemiancoding.com/sketch -->
    <title>1352018B-223A-4907-BFCD-5CF418B885E9</title>
    <desc>Created with sketchtool.</desc>
    <defs></defs>
    <g id="Site-e-Ãrea-do-Associado" stroke="none" stroke-width="1" fill="none" fill-rule="evenodd">
        <g id="CONTATO" transform="translate(-719.000000, -210.000000)" fill-rule="nonzero">
            <g id="INFOS" transform="translate(719.000000, 210.000000)">
                <g id="phone-receiver">
                    <path d="M46.5798828,5.26308594 C42.2538086,1.67529297 33.1989258,0.0684570312 25,0.0684570312 C16.8010742,0.0684570312 7.74609375,1.67529297 3.42011719,5.26308594 C-0.536035156,8.54414062 0.027734375,15.4793945 0.027734375,15.4793945 C0.027734375,15.4793945 2.86396484,16.4907227 8.52539062,16.4907227 C14.1868164,16.4907227 17.0230469,15.4793945 17.0230469,15.4793945 L32.9768555,15.4793945 C32.9768555,15.4793945 35.8130859,16.4907227 41.4745117,16.4907227 C47.1359375,16.4907227 49.972168,15.4793945 49.972168,15.4793945 C49.972168,15.4793945 50.5359375,8.54414062 46.5798828,5.26308594 Z" id="Shape" fill="#C20C3F"></path>
                    <path d="M39.2576172,19.5994141 C38.5921875,18.7235352 38.0477539,17.1068359 38.0477539,16.0068359 L38.0477539,11.1147461 C38.0477539,10.0147461 37.1970703,8.82099609 36.1573242,8.46181641 C36.1573242,8.46181641 32.8147461,7.30732422 25,7.30732422 C17.1852539,7.30732422 13.8426758,8.46181641 13.8426758,8.46181641 C12.8029297,8.82089844 11.9522461,10.0147461 11.9522461,11.1147461 L11.9522461,16.0068359 C11.9522461,17.1068359 11.4078125,18.7235352 10.7423828,19.5994141 L7.13427734,24.3486328 C6.46884766,25.2245117 5.92441406,26.8412109 5.92441406,27.9412109 L5.92441406,33.6736328 C5.92441406,34.7736328 6.82441406,35.6736328 7.92441406,35.6736328 L42.0753906,35.6736328 C43.1753906,35.6736328 44.0753906,34.7736328 44.0753906,33.6736328 L44.0753906,27.9411133 C44.0753906,26.8411133 43.530957,25.2244141 42.8655273,24.3485352 L39.2576172,19.5994141 Z" id="Shape" fill="#FF385C"></path>
                    <circle id="Oval" fill="#FFFFFF" cx="25" cy="20.2899414" r="7.77773437"></circle>
                    <circle id="Oval" fill="#C20C3F" cx="25" cy="20.2899414" r="2.79550781"></circle>
                </g>
            </g>
        </g>
    </g>
</svg>