<?xml version="1.0" encoding="UTF-8"?>
<svg width="54px" height="39px" viewBox="0 0 54 39" version="1.1" xmlns="http://www.w3.org/2000/svg" xmlns:xlink="http://www.w3.org/1999/xlink">
    <!-- Generator: sketchtool 50.1 (55044) - http://www.bohemiancoding.com/sketch -->
    <title>A1407B4F-EB17-4581-B5D7-5CE788C40C6A</title>
    <desc>Created with sketchtool.</desc>
    <defs></defs>
    <g id="Site-e-Ãrea-do-Associado" stroke="none" stroke-width="1" fill="none" fill-rule="evenodd">
        <g id="Formas-de-pagamento" transform="translate(-286.000000, -361.000000)">
            <g id="Viagem-1" transform="translate(272.000000, 333.000000)">
                <g id="visa" transform="translate(14.000000, 28.000000)">
                    <rect id="visa-bg" fill="#224DBA" x="0" y="0" width="53.76" height="38.3098592" rx="6.63157895"></rect>
                    <path d="M16.8003848,25.7696458 L13.6432693,25.7696458 L11.2758175,16.853736 C11.1634482,16.4436042 10.9248559,16.0810238 10.5738943,15.9101356 C9.69802945,15.4806859 8.73288493,15.1389094 7.68,14.9665351 L7.68,14.6232726 L12.7658652,14.6232726 C13.4677885,14.6232726 13.994231,15.1389094 14.0819714,15.7377613 L15.3103371,22.1691042 L18.4659133,14.6232726 L21.5352884,14.6232726 L16.8003848,25.7696458 Z M23.2900966,25.7696458 L20.308462,25.7696458 L22.7636542,14.6232726 L25.7452888,14.6232726 L23.2900966,25.7696458 Z M29.6027883,17.7111493 C29.6905287,17.1108114 30.2169712,16.7675489 30.8311541,16.7675489 C31.7962986,16.6813617 32.8476442,16.853736 33.7250483,17.2816997 L34.2514908,14.881834 C33.3740867,14.5385714 32.4089421,14.3661972 31.5330773,14.3661972 C28.6391831,14.3661972 26.5334132,15.9101356 26.5334132,18.0529259 C26.5334132,19.6830514 28.0250002,20.5389787 29.0778851,21.0546155 C30.2169712,21.5687663 30.6556732,21.9120288 30.5679328,22.4261796 C30.5679328,23.1974058 29.6905287,23.5406683 28.8146639,23.5406683 C27.761779,23.5406683 26.708894,23.2835929 25.7452888,22.8541433 L25.2188464,25.255495 C26.2717313,25.6834586 27.4108173,25.8558329 28.4637023,25.8558329 C31.7085582,25.940534 33.7250483,24.3980816 33.7250483,22.0829171 C33.7250483,19.1674146 29.6027883,18.9965263 29.6027883,17.7111493 L29.6027883,17.7111493 Z M44.16,25.7696458 L41.7925482,14.6232726 L39.2496156,14.6232726 C38.7231731,14.6232726 38.1967307,14.9665351 38.0212498,15.4806859 L33.6373079,25.7696458 L36.706683,25.7696458 L37.3193266,24.1410062 L41.0906249,24.1410062 L41.4415866,25.7696458 L44.16,25.7696458 Z M39.6883177,17.6249622 L40.5641825,21.8258417 L38.1089903,21.8258417 L39.6883177,17.6249622 Z" id="visa-logo" fill="#FFFFFF"></path>
                </g>
            </g>
        </g>
    </g>
</svg>